<svg width="20" height="22" viewBox="0 0 20 22" fill="none" xmlns="http://www.w3.org/2000/svg">
<path d="M16.498 8.45957V7.75497C16.498 3.88623 13.4763 0.75 9.7489 0.75C6.02146 0.75 2.99977 3.88623 2.99977 7.75497V8.45957C2.99977 9.30516 2.75862 10.1318 2.3067 10.8354L1.19926 12.5595C0.187725 14.1343 0.959948 16.2749 2.71926 16.7729C7.32164 18.0757 12.1762 18.0757 16.7785 16.7729C18.5379 16.2749 19.3101 14.1343 18.2985 12.5595L17.1911 10.8354C16.7392 10.1318 16.498 9.30516 16.498 8.45957Z" stroke="#131927" stroke-width="1.5"/>
<path d="M5.2489 17.75C5.90393 19.4978 7.67136 20.75 9.7489 20.75C11.8264 20.75 13.5939 19.4978 14.2489 17.75" stroke="#131927" stroke-width="1.5" stroke-linecap="round"/>
</svg>
