<svg width="24" height="24" viewBox="0 0 24 24" fill="none" xmlns="http://www.w3.org/2000/svg">
<path d="M8.5 1.75H15.5C17.6878 1.75 18.9406 2.09104 19.6748 2.8252C20.409 3.55935 20.75 4.81222 20.75 7V17C20.75 17.1601 20.7498 17.2935 20.7412 17.4336C20.731 17.573 20.5965 17.6807 20.4775 17.6719L20.4766 17.6709L20.4248 17.6621C20.3108 17.6293 20.2327 17.5201 20.2383 17.4111C20.2503 17.2668 20.25 17.1156 20.25 17V7C20.25 6.0991 20.2087 5.34534 20.0791 4.72754C19.9483 4.10412 19.7199 3.58205 19.3213 3.18262C18.9226 2.7833 18.4013 2.55457 17.7773 2.42285C17.1588 2.29232 16.4037 2.25 15.5 2.25H8.5C7.59631 2.25 6.84116 2.29232 6.22266 2.42285C5.59867 2.55457 5.07735 2.7833 4.67871 3.18262C4.28008 3.58205 4.05175 4.10412 3.9209 4.72754C3.79129 5.34534 3.75 6.0991 3.75 7V18C3.75 18.1339 3.63386 18.25 3.5 18.25C3.36614 18.25 3.25 18.1339 3.25 18V7C3.25 4.81222 3.59104 3.55935 4.3252 2.8252C5.05935 2.09104 6.31222 1.75 8.5 1.75Z" fill="#131927" stroke="#131927"/>
<path d="M6.34961 14.75H20.5C20.6339 14.75 20.75 14.8661 20.75 15V18.5C20.75 20.5639 19.0639 22.25 17 22.25H7C4.93614 22.25 3.25 20.5639 3.25 18.5V17.8496C3.25021 16.1903 4.55968 14.8367 6.19141 14.7539L6.34961 14.75ZM6.34961 15.25C4.91378 15.2502 3.75021 16.4138 3.75 17.8496V18.5C3.75 20.2961 5.20386 21.75 7 21.75H17C18.7961 21.75 20.25 20.2961 20.25 18.5V15.25H6.34961Z" fill="#131927" stroke="#131927"/>
<path d="M16 7.75H8C7.59 7.75 7.25 7.41 7.25 7C7.25 6.59 7.59 6.25 8 6.25H16C16.41 6.25 16.75 6.59 16.75 7C16.75 7.41 16.41 7.75 16 7.75Z" fill="#131927"/>
<path d="M13 11.25H8C7.59 11.25 7.25 10.91 7.25 10.5C7.25 10.09 7.59 9.75 8 9.75H13C13.41 9.75 13.75 10.09 13.75 10.5C13.75 10.91 13.41 11.25 13 11.25Z" fill="#131927"/>
</svg>
